<?xml version="1.0" encoding="utf-8"?>
<!-- Generator: Adobe Illustrator 21.1.0, SVG Export Plug-In . SVG Version: 6.00 Build 0)  -->
<svg version="1.1" id="Icon_Set" xmlns="http://www.w3.org/2000/svg" xmlns:xlink="http://www.w3.org/1999/xlink" x="0px" y="0px"
	 viewBox="0 0 512 512" style="enable-background:new 0 0 512 512;" xml:space="preserve">
<style type="text/css">
	.st0{fill:#FFFFFF;}
	.st1{fill:#7DAC51;}
	.st2{fill:#5B7C31;}
	.st3{fill:#463218;}
	.st4{fill:#FEFE71;}
	.st5{fill:#D6CD1E;}
	.st6{fill:#E56823;}
	.st7{fill:#FE8E46;}
	.st8{fill:none;stroke:#FFFFFF;stroke-width:10;stroke-miterlimit:10;}
	.st9{fill:none;stroke:#463218;stroke-width:14;stroke-linecap:round;stroke-linejoin:round;stroke-miterlimit:10;}
	.st10{fill:#FE8D47;}
	.st11{fill:#E56724;}
</style>
<g id="SOIL_PH_METER">
	<g>
		<g>
			<rect x="190.9" y="280.7" class="st1" width="130.2" height="36.3"/>
		</g>
	</g>
	<g>
		<g>
			<rect x="190.9" y="280.7" class="st2" width="43" height="36.3"/>
		</g>
	</g>
	<g>
		<g>
			<rect x="169.9" y="108.5" class="st7" width="172.1" height="172.1"/>
		</g>
	</g>
	<g>
		<g>
			<rect x="169.9" y="108.5" class="st6" width="44.9" height="172.1"/>
		</g>
	</g>
	<g>
		<g>
			<path class="st3" d="M321.1,323.9H190.9c-3.9,0-7-3.1-7-7v-36.3c0-3.9,3.1-7,7-7h130.2c3.9,0,7,3.1,7,7v36.3
				C328.1,320.8,324.9,323.9,321.1,323.9z M197.9,309.9h116.2v-22.3H197.9V309.9z"/>
		</g>
	</g>
	<g>
		<g>
			<path class="st3" d="M342.1,287.7H169.9c-3.9,0-7-3.1-7-7V108.5c0-3.9,3.1-7,7-7h172.1c3.9,0,7,3.1,7,7v172.1
				C349.1,284.5,345.9,287.7,342.1,287.7z M176.9,273.7h158.1V115.5H176.9V273.7z"/>
		</g>
	</g>
	<g>
		<g>
			<path class="st4" d="M194.6,178c-1.4,5.3-2.2,10.9-2.2,16.6c0,35.1,28.5,63.6,63.6,63.6s63.6-28.5,63.6-63.6
				c0-7.5-1.3-14.7-3.7-21.3c-17.1-5.9-35.5-9.2-54.6-9.2C237.6,164.1,215,169,194.6,178z"/>
		</g>
	</g>
	<g>
		<g>
			<path class="st3" d="M256,265.2c-38.9,0-70.6-31.7-70.6-70.6c0-6.2,0.8-12.4,2.5-18.4c0.6-2,2-3.7,4-4.6
				c22-9.6,45.4-14.5,69.5-14.5c19.5,0,38.6,3.2,56.9,9.5c2,0.7,3.6,2.3,4.3,4.3c2.7,7.6,4.1,15.6,4.1,23.7
				C326.6,233.5,294.9,265.2,256,265.2z M200.6,183c-0.8,3.8-1.2,7.7-1.2,11.6c0,31.2,25.4,56.6,56.6,56.6s56.6-25.4,56.6-56.6
				c0-5.4-0.8-10.7-2.3-15.8c-15.8-5.1-32.3-7.7-49-7.7C240.3,171.1,219.9,175.1,200.6,183z"/>
		</g>
	</g>
	<g>
		<g>
			<path class="st3" d="M256,182.6c-3.9,0-7-3.1-7-7v-38c0-3.9,3.1-7,7-7s7,3.1,7,7v38C263,179.4,259.9,182.6,256,182.6z"/>
		</g>
	</g>
	<g>
		<g>
			<path class="st3" d="M256,265.2c-0.9,0-1.8-0.2-2.7-0.5c-3.6-1.5-5.3-5.6-3.8-9.2l26.5-63.6c1.5-3.6,5.6-5.3,9.2-3.8
				c3.6,1.5,5.3,5.6,3.8,9.2l-26.5,63.6C261.3,263.6,258.7,265.2,256,265.2z"/>
		</g>
	</g>
	<g>
		<g>
			<g>
				<path class="st3" d="M285.8,171.1c-1.8,0-3.6-0.7-5-2.1c-2.7-2.7-2.7-7.2,0-9.9l11.3-11.3c2.7-2.7,7.2-2.7,9.9,0
					c2.7,2.7,2.7,7.2,0,9.9L290.8,169C289.4,170.4,287.6,171.1,285.8,171.1z"/>
			</g>
		</g>
		<g>
			<g>
				<path class="st3" d="M226.2,171.1c-1.8,0-3.6-0.7-4.9-2.1l-11.3-11.3c-2.7-2.7-2.7-7.2,0-9.9c2.7-2.7,7.2-2.7,9.9,0l11.3,11.3
					c2.7,2.7,2.7,7.2,0,9.9C229.8,170.4,228,171.1,226.2,171.1z"/>
			</g>
		</g>
	</g>
	<g>
		<g>
			<path class="st1" d="M256,258.2c7.8,0,15.2-1.4,22.1-4c-0.9-11.4-10.5-20.4-22.1-20.4s-21.2,9-22.1,20.4
				C240.8,256.8,248.2,258.2,256,258.2z"/>
		</g>
	</g>
	<g>
		<g>
			<path class="st3" d="M256,265.2c-8.4,0-16.7-1.5-24.6-4.4c-2.9-1.1-4.8-4-4.5-7.1c1.2-15.1,14-26.9,29.1-26.9
				s27.9,11.8,29.1,26.9c0.3,3.1-1.6,6-4.5,7.1C272.7,263.7,264.4,265.2,256,265.2z M242.3,249.5c8.9,2.2,18.5,2.2,27.4,0
				c-2.5-5.1-7.7-8.7-13.7-8.7S244.7,244.3,242.3,249.5z"/>
		</g>
	</g>
	<g>
		<g>
			<g>
				<g>
					<path class="st3" d="M220.5,410.5c-3.9,0-7-3.1-7-7v-86.6c0-3.9,3.1-7,7-7s7,3.1,7,7v86.6C227.5,407.4,224.4,410.5,220.5,410.5
						z"/>
				</g>
			</g>
			<g>
				<g>
					<path class="st3" d="M220.5,410.5c-1.8,0-3.6-0.7-5-2.1l-21.9-21.9c-2.7-2.7-2.7-7.2,0-9.9c2.7-2.7,7.2-2.7,9.9,0l17,17l17-17
						c2.7-2.7,7.2-2.7,9.9,0c2.7,2.7,2.7,7.2,0,9.9l-21.9,21.9C224.1,409.8,222.3,410.5,220.5,410.5z"/>
				</g>
			</g>
		</g>
		<g>
			<g>
				<g>
					<path class="st3" d="M291.5,410.5c-3.9,0-7-3.1-7-7v-86.6c0-3.9,3.1-7,7-7s7,3.1,7,7v86.6C298.5,407.4,295.3,410.5,291.5,410.5
						z"/>
				</g>
			</g>
			<g>
				<g>
					<path class="st3" d="M291.5,410.5c-1.8,0-3.6-0.7-5-2.1l-21.9-21.9c-2.7-2.7-2.7-7.2,0-9.9c2.7-2.7,7.2-2.7,9.9,0l17,17l17-17
						c2.7-2.7,7.2-2.7,9.9,0c2.7,2.7,2.7,7.2,0,9.9l-21.9,21.9C295.1,409.8,293.3,410.5,291.5,410.5z"/>
				</g>
			</g>
		</g>
	</g>
	<g>
		<g>
			<g>
				<g>
					<rect x="296.2" y="125.4" class="st0" width="29.8" height="10.4"/>
				</g>
			</g>
		</g>
		<g>
			<g>
				<g>
					<rect x="275.8" y="125.4" class="st0" width="11.4" height="10.4"/>
				</g>
			</g>
		</g>
	</g>
</g>
</svg>
