<svg xmlns="http://www.w3.org/2000/svg" viewBox="0 0 48 48"><defs><style>.cls-1{fill:#f6ccaf;}.cls-2{fill:#ffdec7;}.cls-3{fill:#a87e6b;}.cls-4{fill:#be927c;}.cls-5{fill:#df8761;}.cls-6{fill:#f29b75;}</style></defs><title>38. Soil</title><g id="_38._Soil" data-name="38. Soil"><path class="cls-1" d="M47,16v6c-2.87,0-2.87-2-5.75-2s-2.87,2-5.75,2-2.87-2-5.74-2S26.88,22,24,22s-2.88-2-5.75-2-2.87,2-5.75,2-2.88-2-5.75-2S3.88,22,1,22V16Z"/><path class="cls-2" d="M47,16v3.9c-1.92-.39-2.25-1.9-4.75-1.9-2.87,0-2.87,2-5.75,2s-2.87-2-5.74-2S27.88,20,25,20s-2.88-2-5.75-2-2.87,2-5.75,2-2.88-2-5.75-2a3.63,3.63,0,0,1-3.39-2Z"/><rect class="cls-3" x="1" y="8" width="46" height="8"/><path class="cls-4" d="M47,8v6H10A6,6,0,0,1,4,8Z"/><path class="cls-5" d="M47,22V40H1V22c2.87,0,2.89-2,5.76-2s2.87,2,5.75,2,2.88-2,5.75-2,2.87,2,5.75,2,2.87-2,5.75-2,2.87,2,5.74,2,2.88-2,5.75-2S44.13,22,47,22Z"/><path class="cls-6" d="M47,22V38H21.08A17.08,17.08,0,0,1,4,20.92,4.33,4.33,0,0,1,6.76,20c2.87,0,2.87,2,5.75,2s2.88-2,5.75-2,2.87,2,5.75,2,2.87-2,5.75-2,2.87,2,5.74,2,2.88-2,5.75-2S44.13,22,47,22Z"/><path class="cls-2" d="M2,13a1,1,0,0,1-.71-1.71,1,1,0,0,1,1.42,0A1,1,0,0,1,2,13Z"/><path class="cls-2" d="M6,13a1,1,0,1,1,1-1A1,1,0,0,1,6,13Z"/><path class="cls-2" d="M10,13a1,1,0,0,1-.71-1.71,1,1,0,0,1,1.42,0A1,1,0,0,1,10,13Z"/><path class="cls-2" d="M14,13a1,1,0,0,1-.38-1.92C15.09,10.46,15.61,13,14,13Z"/><path class="cls-2" d="M18,13a1,1,0,0,1-.71-1.71,1,1,0,0,1,1.42,0A1,1,0,0,1,18,13Z"/><path class="cls-2" d="M22,13a1,1,0,0,1-.38-1.92C23.06,10.44,23.63,13,22,13Z"/><path class="cls-2" d="M26,13a1,1,0,1,1,.2-2A1,1,0,0,1,26,13Z"/><path class="cls-2" d="M30,13a1,1,0,1,1,1-1A1,1,0,0,1,30,13Z"/><path class="cls-2" d="M34,13a1,1,0,1,1,.92-1.38A1,1,0,0,1,34,13Z"/><path class="cls-2" d="M38,13a1,1,0,1,1,.38-1.92A1,1,0,0,1,38,13Z"/><path class="cls-2" d="M42,13a1,1,0,1,1,.92-1.38A1,1,0,0,1,42,13Z"/><path class="cls-2" d="M46,13a1,1,0,0,1-1-1,1,1,0,1,1,1,1Z"/><path class="cls-2" d="M6,28c-3.58,0-5,.35-5-1s1.36-1,5-1A1,1,0,0,1,6,28Z"/><path class="cls-2" d="M8,36c-3.58,0-5,.35-5-1s1.36-1,5-1A1,1,0,0,1,8,36Z"/><path class="cls-2" d="M13,32c-3.58,0-5,.35-5-1s1.36-1,5-1A1,1,0,0,1,13,32Z"/><path class="cls-2" d="M17,28c-3.58,0-5,.35-5-1s1.36-1,5-1A1,1,0,0,1,17,28Z"/><path class="cls-2" d="M19,36c-3.58,0-5,.35-5-1s1.36-1,5-1A1,1,0,0,1,19,36Z"/><path class="cls-2" d="M24,32c-3.58,0-5,.35-5-1s1.36-1,5-1A1,1,0,0,1,24,32Z"/><path class="cls-2" d="M28,28c-3.58,0-5,.35-5-1s1.36-1,5-1A1,1,0,0,1,28,28Z"/><path class="cls-2" d="M30,36c-3.58,0-5,.35-5-1s1.37-1,5-1A1,1,0,0,1,30,36Z"/><path class="cls-2" d="M35,32c-3.58,0-5,.35-5-1s1.37-1,5-1A1,1,0,0,1,35,32Z"/><path class="cls-2" d="M39,28c-3.58,0-5,.35-5-1s1.37-1,5-1A1,1,0,0,1,39,28Z"/><path class="cls-2" d="M41,36c-3.58,0-5,.35-5-1s1.37-1,5-1A1,1,0,0,1,41,36Z"/><path class="cls-2" d="M46,32c-3.58,0-5,.35-5-1s1.37-1,5-1A1,1,0,0,1,46,32Z"/></g></svg>